REM DISCID 700AC908
REM COMMENT "whipper 0.10.1.dev27+ga4b9742.d20240827"
PERFORMER "MØL"
TITLE "Diorama"
FILE "data.wav" WAVE
  TRACK 01 AUDIO
    PERFORMER "MØL"
    TITLE "Fraktur"
    ISRC DED832100085
    INDEX 01 00:00:00
  TRACK 02 AUDIO
    PERFORMER "MØL"
    TITLE "Photophobic"
    ISRC DED832100086
    INDEX 01 04:19:00
  TRACK 03 AUDIO
    PERFORMER "MØL"
    TITLE "Serf"
    ISRC DED832100087
    INDEX 01 09:37:00
  TRACK 04 AUDIO
    PERFORMER "MØL"
    TITLE "Vestige"
    ISRC DED832100088
    INDEX 01 14:59:12
  TRACK 05 AUDIO
    PERFORMER "MØL"
    TITLE "Redacted"
    ISRC DED832100089
    INDEX 01 20:37:68
  TRACK 06 AUDIO
    PERFORMER "MØL"
    TITLE "Itinerari"
    ISRC DED832100090
    INDEX 01 25:54:18
  TRACK 07 AUDIO
    PERFORMER "MØL"
    TITLE "Tvesind"
    ISRC DED832100091
    INDEX 01 30:57:58
  TRACK 08 AUDIO
    PERFORMER "MØL"
    TITLE "Diorama"
    ISRC DED832100092
    INDEX 01 38:46:57
